<mxfile host="app.diagrams.net" modified="2021-11-05T06:28:32.937Z" agent="5.0 (Windows NT 10.0; Win64; x64) AppleWebKit/537.36 (KHTML, like Gecko) Chrome/95.0.4638.69 Safari/537.36" etag="saNfSS6vQs3cAxB5PxTf" version="15.6.8" type="github">
  <diagram name="Page-1" id="90a13364-a465-7bf4-72fc-28e22215d7a0">
    <mxGraphModel dx="1730" dy="952" grid="1" gridSize="10" guides="1" tooltips="1" connect="1" arrows="1" fold="1" page="1" pageScale="1.5" pageWidth="1169" pageHeight="826" background="none" math="0" shadow="0">
      <root>
        <mxCell id="0" style=";html=1;" />
        <mxCell id="1" style=";html=1;" parent="0" />
        <mxCell id="3a17f1ce550125da-1" value="ALU Design" style="whiteSpace=wrap;html=1;shadow=1;fontSize=20;fillColor=#f5f5f5;strokeColor=#666666;strokeWidth=2;dashed=1;" parent="1" vertex="1">
          <mxGeometry x="797" y="250" width="150" height="60" as="geometry" />
        </mxCell>
        <mxCell id="3a17f1ce550125da-13" style="edgeStyle=elbowEdgeStyle;rounded=0;html=1;startArrow=none;startFill=0;jettySize=auto;orthogonalLoop=1;fontSize=18;elbow=vertical;" parent="1" source="3a17f1ce550125da-2" edge="1">
          <mxGeometry relative="1" as="geometry">
            <mxPoint x="1037" y="478.58823529411757" as="targetPoint" />
          </mxGeometry>
        </mxCell>
        <mxCell id="vI0If23ku_HwxLo2vswI-122" value="Result[0:31]" style="edgeLabel;html=1;align=center;verticalAlign=middle;resizable=0;points=[];" vertex="1" connectable="0" parent="3a17f1ce550125da-13">
          <mxGeometry x="-0.1799" y="2" relative="1" as="geometry">
            <mxPoint as="offset" />
          </mxGeometry>
        </mxCell>
        <mxCell id="3a17f1ce550125da-14" style="edgeStyle=elbowEdgeStyle;rounded=0;html=1;startArrow=none;startFill=0;jettySize=auto;orthogonalLoop=1;fontSize=18;elbow=vertical;" parent="1" source="3a17f1ce550125da-2" edge="1">
          <mxGeometry relative="1" as="geometry">
            <mxPoint x="1037" y="553.8823529411766" as="targetPoint" />
          </mxGeometry>
        </mxCell>
        <mxCell id="vI0If23ku_HwxLo2vswI-123" value="Carry" style="edgeLabel;html=1;align=center;verticalAlign=middle;resizable=0;points=[];" vertex="1" connectable="0" parent="3a17f1ce550125da-14">
          <mxGeometry x="-0.0294" y="2" relative="1" as="geometry">
            <mxPoint as="offset" />
          </mxGeometry>
        </mxCell>
        <mxCell id="3a17f1ce550125da-15" style="edgeStyle=elbowEdgeStyle;rounded=0;html=1;startArrow=none;startFill=0;jettySize=auto;orthogonalLoop=1;fontSize=18;elbow=vertical;" parent="1" source="3a17f1ce550125da-2" edge="1">
          <mxGeometry relative="1" as="geometry">
            <mxPoint x="1037" y="633.8823529411766" as="targetPoint" />
          </mxGeometry>
        </mxCell>
        <mxCell id="vI0If23ku_HwxLo2vswI-124" value="Zero" style="edgeLabel;html=1;align=center;verticalAlign=middle;resizable=0;points=[];" vertex="1" connectable="0" parent="3a17f1ce550125da-15">
          <mxGeometry x="0.0824" y="-4" relative="1" as="geometry">
            <mxPoint as="offset" />
          </mxGeometry>
        </mxCell>
        <mxCell id="3a17f1ce550125da-16" style="edgeStyle=elbowEdgeStyle;rounded=0;html=1;startArrow=none;startFill=0;jettySize=auto;orthogonalLoop=1;fontSize=18;elbow=vertical;" parent="1" source="3a17f1ce550125da-2" edge="1">
          <mxGeometry relative="1" as="geometry">
            <mxPoint x="1037" y="709.1764705882354" as="targetPoint" />
          </mxGeometry>
        </mxCell>
        <mxCell id="vI0If23ku_HwxLo2vswI-125" value="Sign" style="edgeLabel;html=1;align=center;verticalAlign=middle;resizable=0;points=[];" vertex="1" connectable="0" parent="3a17f1ce550125da-16">
          <mxGeometry x="0.0237" y="2" relative="1" as="geometry">
            <mxPoint as="offset" />
          </mxGeometry>
        </mxCell>
        <mxCell id="3a17f1ce550125da-2" value="&lt;div&gt;Mux&lt;/div&gt;&lt;div&gt;9:1&lt;/div&gt;" style="whiteSpace=wrap;html=1;shadow=1;fontSize=18;fillColor=#f5f5f5;strokeColor=#666666;" parent="1" vertex="1">
          <mxGeometry x="787" y="370" width="170" height="820" as="geometry" />
        </mxCell>
        <mxCell id="3a17f1ce550125da-20" style="edgeStyle=elbowEdgeStyle;rounded=0;html=1;startArrow=none;startFill=0;jettySize=auto;orthogonalLoop=1;fontSize=18;elbow=vertical;" parent="1" source="3a17f1ce550125da-8" target="3a17f1ce550125da-2" edge="1">
          <mxGeometry relative="1" as="geometry">
            <Array as="points">
              <mxPoint x="757" y="514" />
            </Array>
          </mxGeometry>
        </mxCell>
        <mxCell id="vI0If23ku_HwxLo2vswI-114" value="Result[0:31]" style="edgeLabel;html=1;align=center;verticalAlign=middle;resizable=0;points=[];" vertex="1" connectable="0" parent="3a17f1ce550125da-20">
          <mxGeometry x="-0.0493" y="2" relative="1" as="geometry">
            <mxPoint as="offset" />
          </mxGeometry>
        </mxCell>
        <mxCell id="3a17f1ce550125da-8" value="XOR" style="whiteSpace=wrap;html=1;shadow=1;fontSize=18;fillColor=#f5f5f5;strokeColor=#666666;" parent="1" vertex="1">
          <mxGeometry x="520" y="500" width="120" height="70" as="geometry" />
        </mxCell>
        <mxCell id="vI0If23ku_HwxLo2vswI-4" value="Carry" style="endArrow=classic;html=1;rounded=0;" edge="1" parent="1" source="3a17f1ce550125da-8">
          <mxGeometry width="50" height="50" relative="1" as="geometry">
            <mxPoint x="700" y="580" as="sourcePoint" />
            <mxPoint x="790" y="535" as="targetPoint" />
            <Array as="points" />
          </mxGeometry>
        </mxCell>
        <mxCell id="vI0If23ku_HwxLo2vswI-8" value="" style="endArrow=classic;html=1;rounded=0;exitX=1;exitY=0.75;exitDx=0;exitDy=0;" edge="1" parent="1" source="3a17f1ce550125da-8">
          <mxGeometry width="50" height="50" relative="1" as="geometry">
            <mxPoint x="690" y="610" as="sourcePoint" />
            <mxPoint x="790" y="553" as="targetPoint" />
          </mxGeometry>
        </mxCell>
        <mxCell id="vI0If23ku_HwxLo2vswI-91" value="Zero" style="edgeLabel;html=1;align=center;verticalAlign=middle;resizable=0;points=[];" vertex="1" connectable="0" parent="vI0If23ku_HwxLo2vswI-8">
          <mxGeometry x="-0.0595" relative="1" as="geometry">
            <mxPoint as="offset" />
          </mxGeometry>
        </mxCell>
        <mxCell id="vI0If23ku_HwxLo2vswI-29" style="edgeStyle=orthogonalEdgeStyle;rounded=0;orthogonalLoop=1;jettySize=auto;html=1;exitX=1;exitY=0.25;exitDx=0;exitDy=0;entryX=0.009;entryY=0.278;entryDx=0;entryDy=0;entryPerimeter=0;" edge="1" parent="1" source="vI0If23ku_HwxLo2vswI-18" target="3a17f1ce550125da-2">
          <mxGeometry relative="1" as="geometry">
            <mxPoint x="790" y="595" as="targetPoint" />
          </mxGeometry>
        </mxCell>
        <mxCell id="vI0If23ku_HwxLo2vswI-115" value="Result[0:31]" style="edgeLabel;html=1;align=center;verticalAlign=middle;resizable=0;points=[];" vertex="1" connectable="0" parent="vI0If23ku_HwxLo2vswI-29">
          <mxGeometry x="-0.1319" y="-1" relative="1" as="geometry">
            <mxPoint as="offset" />
          </mxGeometry>
        </mxCell>
        <mxCell id="vI0If23ku_HwxLo2vswI-30" value="Carry" style="edgeStyle=orthogonalEdgeStyle;rounded=0;orthogonalLoop=1;jettySize=auto;html=1;exitX=1;exitY=0.5;exitDx=0;exitDy=0;entryX=0.001;entryY=0.299;entryDx=0;entryDy=0;entryPerimeter=0;" edge="1" parent="1" source="vI0If23ku_HwxLo2vswI-18" target="3a17f1ce550125da-2">
          <mxGeometry relative="1" as="geometry" />
        </mxCell>
        <mxCell id="vI0If23ku_HwxLo2vswI-32" style="edgeStyle=orthogonalEdgeStyle;rounded=0;orthogonalLoop=1;jettySize=auto;html=1;exitX=1;exitY=0.75;exitDx=0;exitDy=0;" edge="1" parent="1" source="vI0If23ku_HwxLo2vswI-18">
          <mxGeometry relative="1" as="geometry">
            <mxPoint x="790" y="632" as="targetPoint" />
          </mxGeometry>
        </mxCell>
        <mxCell id="vI0If23ku_HwxLo2vswI-93" value="Zero" style="edgeLabel;html=1;align=center;verticalAlign=middle;resizable=0;points=[];" vertex="1" connectable="0" parent="vI0If23ku_HwxLo2vswI-32">
          <mxGeometry x="-0.1029" y="1" relative="1" as="geometry">
            <mxPoint as="offset" />
          </mxGeometry>
        </mxCell>
        <mxCell id="vI0If23ku_HwxLo2vswI-18" value="ADD" style="whiteSpace=wrap;html=1;shadow=1;fontSize=18;fillColor=#f5f5f5;strokeColor=#666666;" vertex="1" parent="1">
          <mxGeometry x="520" y="580" width="120" height="70" as="geometry" />
        </mxCell>
        <mxCell id="vI0If23ku_HwxLo2vswI-26" style="edgeStyle=orthogonalEdgeStyle;rounded=0;orthogonalLoop=1;jettySize=auto;html=1;exitX=1;exitY=0.25;exitDx=0;exitDy=0;entryX=-0.008;entryY=0.083;entryDx=0;entryDy=0;entryPerimeter=0;" edge="1" parent="1" source="vI0If23ku_HwxLo2vswI-19" target="3a17f1ce550125da-2">
          <mxGeometry relative="1" as="geometry" />
        </mxCell>
        <mxCell id="vI0If23ku_HwxLo2vswI-113" value="Result[0:31]" style="edgeLabel;html=1;align=center;verticalAlign=middle;resizable=0;points=[];" vertex="1" connectable="0" parent="vI0If23ku_HwxLo2vswI-26">
          <mxGeometry x="0.1618" y="3" relative="1" as="geometry">
            <mxPoint as="offset" />
          </mxGeometry>
        </mxCell>
        <mxCell id="vI0If23ku_HwxLo2vswI-27" value="Carry" style="edgeStyle=orthogonalEdgeStyle;rounded=0;orthogonalLoop=1;jettySize=auto;html=1;exitX=1;exitY=0.5;exitDx=0;exitDy=0;" edge="1" parent="1" source="vI0If23ku_HwxLo2vswI-19">
          <mxGeometry relative="1" as="geometry">
            <mxPoint x="790" y="455" as="targetPoint" />
          </mxGeometry>
        </mxCell>
        <mxCell id="vI0If23ku_HwxLo2vswI-28" style="edgeStyle=orthogonalEdgeStyle;rounded=0;orthogonalLoop=1;jettySize=auto;html=1;exitX=1;exitY=0.75;exitDx=0;exitDy=0;entryX=-0.008;entryY=0.125;entryDx=0;entryDy=0;entryPerimeter=0;" edge="1" parent="1" source="vI0If23ku_HwxLo2vswI-19" target="3a17f1ce550125da-2">
          <mxGeometry relative="1" as="geometry">
            <mxPoint x="790" y="470" as="targetPoint" />
          </mxGeometry>
        </mxCell>
        <mxCell id="vI0If23ku_HwxLo2vswI-88" value="Zero" style="edgeLabel;html=1;align=center;verticalAlign=middle;resizable=0;points=[];" vertex="1" connectable="0" parent="vI0If23ku_HwxLo2vswI-28">
          <mxGeometry x="0.1329" y="3" relative="1" as="geometry">
            <mxPoint as="offset" />
          </mxGeometry>
        </mxCell>
        <mxCell id="vI0If23ku_HwxLo2vswI-19" value="AND" style="whiteSpace=wrap;html=1;shadow=1;fontSize=18;fillColor=#f5f5f5;strokeColor=#666666;" vertex="1" parent="1">
          <mxGeometry x="520" y="420" width="120" height="70" as="geometry" />
        </mxCell>
        <mxCell id="vI0If23ku_HwxLo2vswI-33" style="edgeStyle=orthogonalEdgeStyle;rounded=0;orthogonalLoop=1;jettySize=auto;html=1;exitX=1;exitY=0.25;exitDx=0;exitDy=0;entryX=0.011;entryY=0.375;entryDx=0;entryDy=0;entryPerimeter=0;" edge="1" parent="1" source="vI0If23ku_HwxLo2vswI-20" target="3a17f1ce550125da-2">
          <mxGeometry relative="1" as="geometry">
            <mxPoint x="790" y="680" as="targetPoint" />
          </mxGeometry>
        </mxCell>
        <mxCell id="vI0If23ku_HwxLo2vswI-116" value="Result[0:31]" style="edgeLabel;html=1;align=center;verticalAlign=middle;resizable=0;points=[];" vertex="1" connectable="0" parent="vI0If23ku_HwxLo2vswI-33">
          <mxGeometry x="-0.1568" y="1" relative="1" as="geometry">
            <mxPoint as="offset" />
          </mxGeometry>
        </mxCell>
        <mxCell id="vI0If23ku_HwxLo2vswI-34" style="edgeStyle=orthogonalEdgeStyle;rounded=0;orthogonalLoop=1;jettySize=auto;html=1;exitX=1;exitY=0.5;exitDx=0;exitDy=0;entryX=0.005;entryY=0.396;entryDx=0;entryDy=0;entryPerimeter=0;" edge="1" parent="1" source="vI0If23ku_HwxLo2vswI-20" target="3a17f1ce550125da-2">
          <mxGeometry relative="1" as="geometry" />
        </mxCell>
        <mxCell id="vI0If23ku_HwxLo2vswI-95" value="Carry" style="edgeLabel;html=1;align=center;verticalAlign=middle;resizable=0;points=[];" vertex="1" connectable="0" parent="vI0If23ku_HwxLo2vswI-34">
          <mxGeometry x="-0.1169" relative="1" as="geometry">
            <mxPoint as="offset" />
          </mxGeometry>
        </mxCell>
        <mxCell id="vI0If23ku_HwxLo2vswI-35" style="edgeStyle=orthogonalEdgeStyle;rounded=0;orthogonalLoop=1;jettySize=auto;html=1;exitX=1;exitY=0.75;exitDx=0;exitDy=0;entryX=0.013;entryY=0.417;entryDx=0;entryDy=0;entryPerimeter=0;" edge="1" parent="1" source="vI0If23ku_HwxLo2vswI-20" target="3a17f1ce550125da-2">
          <mxGeometry relative="1" as="geometry">
            <mxPoint x="790" y="720" as="targetPoint" />
          </mxGeometry>
        </mxCell>
        <mxCell id="vI0If23ku_HwxLo2vswI-96" value="Zero" style="edgeLabel;html=1;align=center;verticalAlign=middle;resizable=0;points=[];" vertex="1" connectable="0" parent="vI0If23ku_HwxLo2vswI-35">
          <mxGeometry x="-0.1018" relative="1" as="geometry">
            <mxPoint as="offset" />
          </mxGeometry>
        </mxCell>
        <mxCell id="vI0If23ku_HwxLo2vswI-20" value="2&#39;s Compliment" style="whiteSpace=wrap;html=1;shadow=1;fontSize=18;fillColor=#f5f5f5;strokeColor=#666666;" vertex="1" parent="1">
          <mxGeometry x="520" y="660" width="120" height="70" as="geometry" />
        </mxCell>
        <mxCell id="vI0If23ku_HwxLo2vswI-36" style="edgeStyle=orthogonalEdgeStyle;rounded=0;orthogonalLoop=1;jettySize=auto;html=1;exitX=1;exitY=0.25;exitDx=0;exitDy=0;entryX=-0.004;entryY=0.472;entryDx=0;entryDy=0;entryPerimeter=0;" edge="1" parent="1" source="vI0If23ku_HwxLo2vswI-21" target="3a17f1ce550125da-2">
          <mxGeometry relative="1" as="geometry" />
        </mxCell>
        <mxCell id="vI0If23ku_HwxLo2vswI-117" value="Result[0:31]" style="edgeLabel;html=1;align=center;verticalAlign=middle;resizable=0;points=[];" vertex="1" connectable="0" parent="vI0If23ku_HwxLo2vswI-36">
          <mxGeometry x="-0.1016" y="-1" relative="1" as="geometry">
            <mxPoint as="offset" />
          </mxGeometry>
        </mxCell>
        <mxCell id="vI0If23ku_HwxLo2vswI-37" style="edgeStyle=orthogonalEdgeStyle;rounded=0;orthogonalLoop=1;jettySize=auto;html=1;exitX=1;exitY=0.5;exitDx=0;exitDy=0;entryX=0.011;entryY=0.494;entryDx=0;entryDy=0;entryPerimeter=0;" edge="1" parent="1" source="vI0If23ku_HwxLo2vswI-21" target="3a17f1ce550125da-2">
          <mxGeometry relative="1" as="geometry">
            <mxPoint x="780" y="780" as="targetPoint" />
          </mxGeometry>
        </mxCell>
        <mxCell id="vI0If23ku_HwxLo2vswI-98" value="Carry" style="edgeLabel;html=1;align=center;verticalAlign=middle;resizable=0;points=[];" vertex="1" connectable="0" parent="vI0If23ku_HwxLo2vswI-37">
          <mxGeometry x="-0.131" y="1" relative="1" as="geometry">
            <mxPoint x="-1" as="offset" />
          </mxGeometry>
        </mxCell>
        <mxCell id="vI0If23ku_HwxLo2vswI-38" style="edgeStyle=orthogonalEdgeStyle;rounded=0;orthogonalLoop=1;jettySize=auto;html=1;exitX=1;exitY=0.75;exitDx=0;exitDy=0;entryX=0;entryY=0.515;entryDx=0;entryDy=0;entryPerimeter=0;" edge="1" parent="1" source="vI0If23ku_HwxLo2vswI-21" target="3a17f1ce550125da-2">
          <mxGeometry relative="1" as="geometry">
            <mxPoint x="780" y="792" as="targetPoint" />
          </mxGeometry>
        </mxCell>
        <mxCell id="vI0If23ku_HwxLo2vswI-99" value="Zero" style="edgeLabel;html=1;align=center;verticalAlign=middle;resizable=0;points=[];" vertex="1" connectable="0" parent="vI0If23ku_HwxLo2vswI-38">
          <mxGeometry x="-0.1207" y="1" relative="1" as="geometry">
            <mxPoint as="offset" />
          </mxGeometry>
        </mxCell>
        <mxCell id="vI0If23ku_HwxLo2vswI-21" value="Left Logical Shift" style="whiteSpace=wrap;html=1;shadow=1;fontSize=18;fillColor=#f5f5f5;strokeColor=#666666;" vertex="1" parent="1">
          <mxGeometry x="520" y="740" width="120" height="70" as="geometry" />
        </mxCell>
        <mxCell id="vI0If23ku_HwxLo2vswI-39" style="edgeStyle=orthogonalEdgeStyle;rounded=0;orthogonalLoop=1;jettySize=auto;html=1;exitX=1;exitY=0.25;exitDx=0;exitDy=0;entryX=0.016;entryY=0.571;entryDx=0;entryDy=0;entryPerimeter=0;" edge="1" parent="1" source="vI0If23ku_HwxLo2vswI-22" target="3a17f1ce550125da-2">
          <mxGeometry relative="1" as="geometry">
            <mxPoint x="790" y="841" as="targetPoint" />
          </mxGeometry>
        </mxCell>
        <mxCell id="vI0If23ku_HwxLo2vswI-118" value="Result[0:31]" style="edgeLabel;html=1;align=center;verticalAlign=middle;resizable=0;points=[];" vertex="1" connectable="0" parent="vI0If23ku_HwxLo2vswI-39">
          <mxGeometry x="-0.1175" y="-2" relative="1" as="geometry">
            <mxPoint as="offset" />
          </mxGeometry>
        </mxCell>
        <mxCell id="vI0If23ku_HwxLo2vswI-40" style="edgeStyle=orthogonalEdgeStyle;rounded=0;orthogonalLoop=1;jettySize=auto;html=1;exitX=1;exitY=0.5;exitDx=0;exitDy=0;entryX=0.008;entryY=0.592;entryDx=0;entryDy=0;entryPerimeter=0;" edge="1" parent="1" source="vI0If23ku_HwxLo2vswI-22" target="3a17f1ce550125da-2">
          <mxGeometry relative="1" as="geometry" />
        </mxCell>
        <mxCell id="vI0If23ku_HwxLo2vswI-101" value="Carry" style="edgeLabel;html=1;align=center;verticalAlign=middle;resizable=0;points=[];" vertex="1" connectable="0" parent="vI0If23ku_HwxLo2vswI-40">
          <mxGeometry x="-0.0798" y="1" relative="1" as="geometry">
            <mxPoint as="offset" />
          </mxGeometry>
        </mxCell>
        <mxCell id="vI0If23ku_HwxLo2vswI-41" style="edgeStyle=orthogonalEdgeStyle;rounded=0;orthogonalLoop=1;jettySize=auto;html=1;exitX=1;exitY=0.75;exitDx=0;exitDy=0;" edge="1" parent="1" source="vI0If23ku_HwxLo2vswI-22">
          <mxGeometry relative="1" as="geometry">
            <mxPoint x="790" y="874" as="targetPoint" />
          </mxGeometry>
        </mxCell>
        <mxCell id="vI0If23ku_HwxLo2vswI-102" value="Zero" style="edgeLabel;html=1;align=center;verticalAlign=middle;resizable=0;points=[];" vertex="1" connectable="0" parent="vI0If23ku_HwxLo2vswI-41">
          <mxGeometry x="-0.0995" relative="1" as="geometry">
            <mxPoint as="offset" />
          </mxGeometry>
        </mxCell>
        <mxCell id="vI0If23ku_HwxLo2vswI-22" value="Right Logical Shift" style="whiteSpace=wrap;html=1;shadow=1;fontSize=18;fillColor=#f5f5f5;strokeColor=#666666;" vertex="1" parent="1">
          <mxGeometry x="520" y="820" width="120" height="70" as="geometry" />
        </mxCell>
        <mxCell id="vI0If23ku_HwxLo2vswI-48" style="edgeStyle=orthogonalEdgeStyle;rounded=0;orthogonalLoop=1;jettySize=auto;html=1;exitX=1;exitY=0.25;exitDx=0;exitDy=0;" edge="1" parent="1" source="vI0If23ku_HwxLo2vswI-23">
          <mxGeometry relative="1" as="geometry">
            <mxPoint x="790" y="918" as="targetPoint" />
          </mxGeometry>
        </mxCell>
        <mxCell id="vI0If23ku_HwxLo2vswI-119" value="Result[0:31]" style="edgeLabel;html=1;align=center;verticalAlign=middle;resizable=0;points=[];" vertex="1" connectable="0" parent="vI0If23ku_HwxLo2vswI-48">
          <mxGeometry x="-0.1021" y="3" relative="1" as="geometry">
            <mxPoint as="offset" />
          </mxGeometry>
        </mxCell>
        <mxCell id="vI0If23ku_HwxLo2vswI-49" style="edgeStyle=orthogonalEdgeStyle;rounded=0;orthogonalLoop=1;jettySize=auto;html=1;exitX=1;exitY=0.5;exitDx=0;exitDy=0;" edge="1" parent="1" source="vI0If23ku_HwxLo2vswI-23">
          <mxGeometry relative="1" as="geometry">
            <mxPoint x="790" y="935" as="targetPoint" />
          </mxGeometry>
        </mxCell>
        <mxCell id="vI0If23ku_HwxLo2vswI-104" value="Carry" style="edgeLabel;html=1;align=center;verticalAlign=middle;resizable=0;points=[];" vertex="1" connectable="0" parent="vI0If23ku_HwxLo2vswI-49">
          <mxGeometry x="-0.1433" y="2" relative="1" as="geometry">
            <mxPoint as="offset" />
          </mxGeometry>
        </mxCell>
        <mxCell id="vI0If23ku_HwxLo2vswI-50" style="edgeStyle=orthogonalEdgeStyle;rounded=0;orthogonalLoop=1;jettySize=auto;html=1;exitX=1;exitY=0.75;exitDx=0;exitDy=0;entryX=0.014;entryY=0.71;entryDx=0;entryDy=0;entryPerimeter=0;" edge="1" parent="1" source="vI0If23ku_HwxLo2vswI-23" target="3a17f1ce550125da-2">
          <mxGeometry relative="1" as="geometry" />
        </mxCell>
        <mxCell id="vI0If23ku_HwxLo2vswI-105" value="Zero" style="edgeLabel;html=1;align=center;verticalAlign=middle;resizable=0;points=[];" vertex="1" connectable="0" parent="vI0If23ku_HwxLo2vswI-50">
          <mxGeometry x="-0.1508" y="1" relative="1" as="geometry">
            <mxPoint as="offset" />
          </mxGeometry>
        </mxCell>
        <mxCell id="vI0If23ku_HwxLo2vswI-23" value="Right Aritmatical Shift" style="whiteSpace=wrap;html=1;shadow=1;fontSize=18;fillColor=#f5f5f5;strokeColor=#666666;" vertex="1" parent="1">
          <mxGeometry x="520" y="900" width="120" height="70" as="geometry" />
        </mxCell>
        <mxCell id="vI0If23ku_HwxLo2vswI-45" style="edgeStyle=orthogonalEdgeStyle;rounded=0;orthogonalLoop=1;jettySize=auto;html=1;exitX=1;exitY=0.25;exitDx=0;exitDy=0;entryX=0.003;entryY=0.767;entryDx=0;entryDy=0;entryPerimeter=0;" edge="1" parent="1" source="vI0If23ku_HwxLo2vswI-24" target="3a17f1ce550125da-2">
          <mxGeometry relative="1" as="geometry" />
        </mxCell>
        <mxCell id="vI0If23ku_HwxLo2vswI-120" value="Result[0:31]" style="edgeLabel;html=1;align=center;verticalAlign=middle;resizable=0;points=[];" vertex="1" connectable="0" parent="vI0If23ku_HwxLo2vswI-45">
          <mxGeometry x="-0.0765" y="-1" relative="1" as="geometry">
            <mxPoint as="offset" />
          </mxGeometry>
        </mxCell>
        <mxCell id="vI0If23ku_HwxLo2vswI-46" style="edgeStyle=orthogonalEdgeStyle;rounded=0;orthogonalLoop=1;jettySize=auto;html=1;exitX=1;exitY=0.5;exitDx=0;exitDy=0;entryX=0;entryY=0.787;entryDx=0;entryDy=0;entryPerimeter=0;" edge="1" parent="1" source="vI0If23ku_HwxLo2vswI-24" target="3a17f1ce550125da-2">
          <mxGeometry relative="1" as="geometry" />
        </mxCell>
        <mxCell id="vI0If23ku_HwxLo2vswI-107" value="Carry" style="edgeLabel;html=1;align=center;verticalAlign=middle;resizable=0;points=[];" vertex="1" connectable="0" parent="vI0If23ku_HwxLo2vswI-46">
          <mxGeometry x="-0.1623" y="-1" relative="1" as="geometry">
            <mxPoint as="offset" />
          </mxGeometry>
        </mxCell>
        <mxCell id="vI0If23ku_HwxLo2vswI-47" style="edgeStyle=orthogonalEdgeStyle;rounded=0;orthogonalLoop=1;jettySize=auto;html=1;exitX=1;exitY=0.75;exitDx=0;exitDy=0;entryX=0.011;entryY=0.809;entryDx=0;entryDy=0;entryPerimeter=0;" edge="1" parent="1" source="vI0If23ku_HwxLo2vswI-24" target="3a17f1ce550125da-2">
          <mxGeometry relative="1" as="geometry" />
        </mxCell>
        <mxCell id="vI0If23ku_HwxLo2vswI-108" value="Zero" style="edgeLabel;html=1;align=center;verticalAlign=middle;resizable=0;points=[];" vertex="1" connectable="0" parent="vI0If23ku_HwxLo2vswI-47">
          <mxGeometry x="-0.1853" y="-1" relative="1" as="geometry">
            <mxPoint as="offset" />
          </mxGeometry>
        </mxCell>
        <mxCell id="vI0If23ku_HwxLo2vswI-24" value="Less than 0" style="whiteSpace=wrap;html=1;shadow=1;fontSize=18;fillColor=#f5f5f5;strokeColor=#666666;" vertex="1" parent="1">
          <mxGeometry x="520" y="980" width="120" height="70" as="geometry" />
        </mxCell>
        <mxCell id="vI0If23ku_HwxLo2vswI-42" style="edgeStyle=orthogonalEdgeStyle;rounded=0;orthogonalLoop=1;jettySize=auto;html=1;exitX=1;exitY=0.25;exitDx=0;exitDy=0;" edge="1" parent="1" source="vI0If23ku_HwxLo2vswI-25">
          <mxGeometry relative="1" as="geometry">
            <mxPoint x="790" y="1077" as="targetPoint" />
          </mxGeometry>
        </mxCell>
        <mxCell id="vI0If23ku_HwxLo2vswI-121" value="Reult[0:31]" style="edgeLabel;html=1;align=center;verticalAlign=middle;resizable=0;points=[];" vertex="1" connectable="0" parent="vI0If23ku_HwxLo2vswI-42">
          <mxGeometry x="-0.1608" y="-2" relative="1" as="geometry">
            <mxPoint as="offset" />
          </mxGeometry>
        </mxCell>
        <mxCell id="vI0If23ku_HwxLo2vswI-43" style="edgeStyle=orthogonalEdgeStyle;rounded=0;orthogonalLoop=1;jettySize=auto;html=1;exitX=1;exitY=0.5;exitDx=0;exitDy=0;entryX=0.018;entryY=0.884;entryDx=0;entryDy=0;entryPerimeter=0;" edge="1" parent="1" source="vI0If23ku_HwxLo2vswI-25" target="3a17f1ce550125da-2">
          <mxGeometry relative="1" as="geometry">
            <mxPoint x="780" y="1095.0588235294117" as="targetPoint" />
          </mxGeometry>
        </mxCell>
        <mxCell id="vI0If23ku_HwxLo2vswI-110" value="Carry" style="edgeLabel;html=1;align=center;verticalAlign=middle;resizable=0;points=[];" vertex="1" connectable="0" parent="vI0If23ku_HwxLo2vswI-43">
          <mxGeometry x="-0.1658" y="1" relative="1" as="geometry">
            <mxPoint as="offset" />
          </mxGeometry>
        </mxCell>
        <mxCell id="vI0If23ku_HwxLo2vswI-44" style="edgeStyle=orthogonalEdgeStyle;rounded=0;orthogonalLoop=1;jettySize=auto;html=1;exitX=1;exitY=0.75;exitDx=0;exitDy=0;entryX=0.019;entryY=0.906;entryDx=0;entryDy=0;entryPerimeter=0;" edge="1" parent="1" source="vI0If23ku_HwxLo2vswI-25" target="3a17f1ce550125da-2">
          <mxGeometry relative="1" as="geometry" />
        </mxCell>
        <mxCell id="vI0If23ku_HwxLo2vswI-111" value="Zero" style="edgeLabel;html=1;align=center;verticalAlign=middle;resizable=0;points=[];" vertex="1" connectable="0" parent="vI0If23ku_HwxLo2vswI-44">
          <mxGeometry x="-0.1684" y="1" relative="1" as="geometry">
            <mxPoint as="offset" />
          </mxGeometry>
        </mxCell>
        <mxCell id="vI0If23ku_HwxLo2vswI-25" value="Equal to 0" style="whiteSpace=wrap;html=1;shadow=1;fontSize=18;fillColor=#f5f5f5;strokeColor=#666666;" vertex="1" parent="1">
          <mxGeometry x="520" y="1060" width="120" height="70" as="geometry" />
        </mxCell>
        <mxCell id="vI0If23ku_HwxLo2vswI-57" value="" style="endArrow=classic;html=1;rounded=0;exitX=1.016;exitY=0.907;exitDx=0;exitDy=0;exitPerimeter=0;entryX=-0.002;entryY=0.139;entryDx=0;entryDy=0;entryPerimeter=0;" edge="1" parent="1" source="vI0If23ku_HwxLo2vswI-19" target="3a17f1ce550125da-2">
          <mxGeometry width="50" height="50" relative="1" as="geometry">
            <mxPoint x="680" y="510" as="sourcePoint" />
            <mxPoint x="730" y="460" as="targetPoint" />
          </mxGeometry>
        </mxCell>
        <mxCell id="vI0If23ku_HwxLo2vswI-89" value="Sign" style="edgeLabel;html=1;align=center;verticalAlign=middle;resizable=0;points=[];" vertex="1" connectable="0" parent="vI0If23ku_HwxLo2vswI-57">
          <mxGeometry x="-0.2318" y="-4" relative="1" as="geometry">
            <mxPoint as="offset" />
          </mxGeometry>
        </mxCell>
        <mxCell id="vI0If23ku_HwxLo2vswI-58" value="" style="endArrow=classic;html=1;rounded=0;exitX=1;exitY=0.926;exitDx=0;exitDy=0;exitPerimeter=0;entryX=0.001;entryY=0.238;entryDx=0;entryDy=0;entryPerimeter=0;" edge="1" parent="1" source="3a17f1ce550125da-8" target="3a17f1ce550125da-2">
          <mxGeometry width="50" height="50" relative="1" as="geometry">
            <mxPoint x="680" y="600" as="sourcePoint" />
            <mxPoint x="730" y="550" as="targetPoint" />
          </mxGeometry>
        </mxCell>
        <mxCell id="vI0If23ku_HwxLo2vswI-92" value="Sign" style="edgeLabel;html=1;align=center;verticalAlign=middle;resizable=0;points=[];" vertex="1" connectable="0" parent="vI0If23ku_HwxLo2vswI-58">
          <mxGeometry x="-0.1142" y="1" relative="1" as="geometry">
            <mxPoint as="offset" />
          </mxGeometry>
        </mxCell>
        <mxCell id="vI0If23ku_HwxLo2vswI-59" value="" style="endArrow=classic;html=1;rounded=0;exitX=1.006;exitY=0.944;exitDx=0;exitDy=0;exitPerimeter=0;entryX=0;entryY=0.338;entryDx=0;entryDy=0;entryPerimeter=0;" edge="1" parent="1" source="vI0If23ku_HwxLo2vswI-18" target="3a17f1ce550125da-2">
          <mxGeometry width="50" height="50" relative="1" as="geometry">
            <mxPoint x="680" y="670" as="sourcePoint" />
            <mxPoint x="730" y="620" as="targetPoint" />
          </mxGeometry>
        </mxCell>
        <mxCell id="vI0If23ku_HwxLo2vswI-94" value="Sign" style="edgeLabel;html=1;align=center;verticalAlign=middle;resizable=0;points=[];" vertex="1" connectable="0" parent="vI0If23ku_HwxLo2vswI-59">
          <mxGeometry x="-0.1537" y="2" relative="1" as="geometry">
            <mxPoint as="offset" />
          </mxGeometry>
        </mxCell>
        <mxCell id="vI0If23ku_HwxLo2vswI-60" value="" style="endArrow=classic;html=1;rounded=0;exitX=0.99;exitY=0.939;exitDx=0;exitDy=0;exitPerimeter=0;entryX=0.011;entryY=0.433;entryDx=0;entryDy=0;entryPerimeter=0;" edge="1" parent="1" source="vI0If23ku_HwxLo2vswI-20" target="3a17f1ce550125da-2">
          <mxGeometry width="50" height="50" relative="1" as="geometry">
            <mxPoint x="680" y="760" as="sourcePoint" />
            <mxPoint x="730" y="710" as="targetPoint" />
          </mxGeometry>
        </mxCell>
        <mxCell id="vI0If23ku_HwxLo2vswI-97" value="Sign" style="edgeLabel;html=1;align=center;verticalAlign=middle;resizable=0;points=[];" vertex="1" connectable="0" parent="vI0If23ku_HwxLo2vswI-60">
          <mxGeometry x="-0.1122" y="-1" relative="1" as="geometry">
            <mxPoint as="offset" />
          </mxGeometry>
        </mxCell>
        <mxCell id="vI0If23ku_HwxLo2vswI-61" value="" style="endArrow=classic;html=1;rounded=0;exitX=1.008;exitY=0.935;exitDx=0;exitDy=0;exitPerimeter=0;entryX=-0.01;entryY=0.532;entryDx=0;entryDy=0;entryPerimeter=0;" edge="1" parent="1" source="vI0If23ku_HwxLo2vswI-21" target="3a17f1ce550125da-2">
          <mxGeometry width="50" height="50" relative="1" as="geometry">
            <mxPoint x="680" y="820" as="sourcePoint" />
            <mxPoint x="730" y="770" as="targetPoint" />
          </mxGeometry>
        </mxCell>
        <mxCell id="vI0If23ku_HwxLo2vswI-100" value="Sign" style="edgeLabel;html=1;align=center;verticalAlign=middle;resizable=0;points=[];" vertex="1" connectable="0" parent="vI0If23ku_HwxLo2vswI-61">
          <mxGeometry x="-0.1166" y="1" relative="1" as="geometry">
            <mxPoint as="offset" />
          </mxGeometry>
        </mxCell>
        <mxCell id="vI0If23ku_HwxLo2vswI-62" value="" style="endArrow=classic;html=1;rounded=0;exitX=1.006;exitY=0.953;exitDx=0;exitDy=0;exitPerimeter=0;entryX=0.001;entryY=0.631;entryDx=0;entryDy=0;entryPerimeter=0;" edge="1" parent="1" source="vI0If23ku_HwxLo2vswI-22" target="3a17f1ce550125da-2">
          <mxGeometry width="50" height="50" relative="1" as="geometry">
            <mxPoint x="680" y="880" as="sourcePoint" />
            <mxPoint x="730" y="830" as="targetPoint" />
          </mxGeometry>
        </mxCell>
        <mxCell id="vI0If23ku_HwxLo2vswI-103" value="Sign" style="edgeLabel;html=1;align=center;verticalAlign=middle;resizable=0;points=[];" vertex="1" connectable="0" parent="vI0If23ku_HwxLo2vswI-62">
          <mxGeometry x="-0.145" y="-1" relative="1" as="geometry">
            <mxPoint as="offset" />
          </mxGeometry>
        </mxCell>
        <mxCell id="vI0If23ku_HwxLo2vswI-63" value="" style="endArrow=classic;html=1;rounded=0;exitX=1.019;exitY=0.958;exitDx=0;exitDy=0;exitPerimeter=0;entryX=0.005;entryY=0.727;entryDx=0;entryDy=0;entryPerimeter=0;" edge="1" parent="1" source="vI0If23ku_HwxLo2vswI-23" target="3a17f1ce550125da-2">
          <mxGeometry width="50" height="50" relative="1" as="geometry">
            <mxPoint x="680" y="1010" as="sourcePoint" />
            <mxPoint x="730" y="960" as="targetPoint" />
          </mxGeometry>
        </mxCell>
        <mxCell id="vI0If23ku_HwxLo2vswI-106" value="Sign" style="edgeLabel;html=1;align=center;verticalAlign=middle;resizable=0;points=[];" vertex="1" connectable="0" parent="vI0If23ku_HwxLo2vswI-63">
          <mxGeometry x="-0.139" y="-1" relative="1" as="geometry">
            <mxPoint as="offset" />
          </mxGeometry>
        </mxCell>
        <mxCell id="vI0If23ku_HwxLo2vswI-64" value="" style="endArrow=classic;html=1;rounded=0;exitX=1.024;exitY=0.949;exitDx=0;exitDy=0;exitPerimeter=0;entryX=0.001;entryY=0.825;entryDx=0;entryDy=0;entryPerimeter=0;" edge="1" parent="1" source="vI0If23ku_HwxLo2vswI-24" target="3a17f1ce550125da-2">
          <mxGeometry width="50" height="50" relative="1" as="geometry">
            <mxPoint x="680" y="1060" as="sourcePoint" />
            <mxPoint x="730" y="1010" as="targetPoint" />
          </mxGeometry>
        </mxCell>
        <mxCell id="vI0If23ku_HwxLo2vswI-109" value="Sign" style="edgeLabel;html=1;align=center;verticalAlign=middle;resizable=0;points=[];" vertex="1" connectable="0" parent="vI0If23ku_HwxLo2vswI-64">
          <mxGeometry x="-0.1783" relative="1" as="geometry">
            <mxPoint as="offset" />
          </mxGeometry>
        </mxCell>
        <mxCell id="vI0If23ku_HwxLo2vswI-65" value="" style="endArrow=classic;html=1;rounded=0;exitX=1.008;exitY=0.953;exitDx=0;exitDy=0;exitPerimeter=0;entryX=0.007;entryY=0.924;entryDx=0;entryDy=0;entryPerimeter=0;" edge="1" parent="1" source="vI0If23ku_HwxLo2vswI-25" target="3a17f1ce550125da-2">
          <mxGeometry width="50" height="50" relative="1" as="geometry">
            <mxPoint x="680" y="1160" as="sourcePoint" />
            <mxPoint x="730" y="1110" as="targetPoint" />
          </mxGeometry>
        </mxCell>
        <mxCell id="vI0If23ku_HwxLo2vswI-112" value="Sign" style="edgeLabel;html=1;align=center;verticalAlign=middle;resizable=0;points=[];" vertex="1" connectable="0" parent="vI0If23ku_HwxLo2vswI-65">
          <mxGeometry x="-0.1592" y="1" relative="1" as="geometry">
            <mxPoint as="offset" />
          </mxGeometry>
        </mxCell>
        <mxCell id="vI0If23ku_HwxLo2vswI-66" value="" style="endArrow=classic;html=1;rounded=0;entryX=0;entryY=0.25;entryDx=0;entryDy=0;" edge="1" parent="1" target="vI0If23ku_HwxLo2vswI-19">
          <mxGeometry width="50" height="50" relative="1" as="geometry">
            <mxPoint x="310" y="700" as="sourcePoint" />
            <mxPoint x="470" y="910" as="targetPoint" />
            <Array as="points">
              <mxPoint x="310" y="438" />
            </Array>
          </mxGeometry>
        </mxCell>
        <mxCell id="vI0If23ku_HwxLo2vswI-67" value="" style="endArrow=classic;html=1;rounded=0;entryX=0;entryY=0.25;entryDx=0;entryDy=0;" edge="1" parent="1" target="vI0If23ku_HwxLo2vswI-21">
          <mxGeometry width="50" height="50" relative="1" as="geometry">
            <mxPoint x="310" y="758" as="sourcePoint" />
            <mxPoint x="540" y="780" as="targetPoint" />
          </mxGeometry>
        </mxCell>
        <mxCell id="vI0If23ku_HwxLo2vswI-68" value="" style="endArrow=classic;html=1;rounded=0;entryX=0;entryY=0.25;entryDx=0;entryDy=0;" edge="1" parent="1" target="vI0If23ku_HwxLo2vswI-23">
          <mxGeometry width="50" height="50" relative="1" as="geometry">
            <mxPoint x="310" y="780" as="sourcePoint" />
            <mxPoint x="540" y="780" as="targetPoint" />
            <Array as="points">
              <mxPoint x="310" y="918" />
            </Array>
          </mxGeometry>
        </mxCell>
        <mxCell id="vI0If23ku_HwxLo2vswI-69" value="" style="endArrow=classic;html=1;rounded=0;entryX=0;entryY=0.25;entryDx=0;entryDy=0;" edge="1" parent="1" target="vI0If23ku_HwxLo2vswI-22">
          <mxGeometry width="50" height="50" relative="1" as="geometry">
            <mxPoint x="310" y="710" as="sourcePoint" />
            <mxPoint x="540" y="780" as="targetPoint" />
            <Array as="points">
              <mxPoint x="310" y="838" />
            </Array>
          </mxGeometry>
        </mxCell>
        <mxCell id="vI0If23ku_HwxLo2vswI-70" value="" style="endArrow=classic;html=1;rounded=0;entryX=0;entryY=0.25;entryDx=0;entryDy=0;" edge="1" parent="1" target="vI0If23ku_HwxLo2vswI-24">
          <mxGeometry width="50" height="50" relative="1" as="geometry">
            <mxPoint x="310" y="740" as="sourcePoint" />
            <mxPoint x="540" y="780" as="targetPoint" />
            <Array as="points">
              <mxPoint x="310" y="998" />
              <mxPoint x="400" y="998" />
            </Array>
          </mxGeometry>
        </mxCell>
        <mxCell id="vI0If23ku_HwxLo2vswI-71" value="" style="endArrow=classic;html=1;rounded=0;entryX=0;entryY=0.25;entryDx=0;entryDy=0;" edge="1" parent="1" target="vI0If23ku_HwxLo2vswI-20">
          <mxGeometry width="50" height="50" relative="1" as="geometry">
            <mxPoint x="310" y="730" as="sourcePoint" />
            <mxPoint x="540" y="780" as="targetPoint" />
            <Array as="points">
              <mxPoint x="310" y="678" />
            </Array>
          </mxGeometry>
        </mxCell>
        <mxCell id="vI0If23ku_HwxLo2vswI-72" value="" style="endArrow=classic;html=1;rounded=0;entryX=0;entryY=0.25;entryDx=0;entryDy=0;" edge="1" parent="1" target="vI0If23ku_HwxLo2vswI-18">
          <mxGeometry width="50" height="50" relative="1" as="geometry">
            <mxPoint x="310" y="700" as="sourcePoint" />
            <mxPoint x="440" y="610" as="targetPoint" />
            <Array as="points">
              <mxPoint x="310" y="598" />
            </Array>
          </mxGeometry>
        </mxCell>
        <mxCell id="vI0If23ku_HwxLo2vswI-73" value="" style="endArrow=classic;html=1;rounded=0;entryX=0;entryY=0.75;entryDx=0;entryDy=0;" edge="1" parent="1" target="vI0If23ku_HwxLo2vswI-19">
          <mxGeometry width="50" height="50" relative="1" as="geometry">
            <mxPoint x="350" y="1110" as="sourcePoint" />
            <mxPoint x="540" y="780" as="targetPoint" />
            <Array as="points">
              <mxPoint x="350" y="473" />
            </Array>
          </mxGeometry>
        </mxCell>
        <mxCell id="vI0If23ku_HwxLo2vswI-74" value="" style="endArrow=classic;html=1;rounded=0;entryX=0;entryY=0.75;entryDx=0;entryDy=0;" edge="1" parent="1" target="vI0If23ku_HwxLo2vswI-22">
          <mxGeometry width="50" height="50" relative="1" as="geometry">
            <mxPoint x="350" y="873" as="sourcePoint" />
            <mxPoint x="520" y="710" as="targetPoint" />
          </mxGeometry>
        </mxCell>
        <mxCell id="vI0If23ku_HwxLo2vswI-75" value="" style="endArrow=classic;html=1;rounded=0;entryX=0;entryY=0.75;entryDx=0;entryDy=0;" edge="1" parent="1" target="vI0If23ku_HwxLo2vswI-21">
          <mxGeometry width="50" height="50" relative="1" as="geometry">
            <mxPoint x="350" y="793" as="sourcePoint" />
            <mxPoint x="520" y="710" as="targetPoint" />
          </mxGeometry>
        </mxCell>
        <mxCell id="vI0If23ku_HwxLo2vswI-76" value="" style="endArrow=classic;html=1;rounded=0;entryX=0;entryY=0.75;entryDx=0;entryDy=0;" edge="1" parent="1" target="vI0If23ku_HwxLo2vswI-18">
          <mxGeometry width="50" height="50" relative="1" as="geometry">
            <mxPoint x="350" y="633" as="sourcePoint" />
            <mxPoint x="520" y="710" as="targetPoint" />
          </mxGeometry>
        </mxCell>
        <mxCell id="vI0If23ku_HwxLo2vswI-77" value="" style="endArrow=classic;html=1;rounded=0;entryX=0;entryY=0.25;entryDx=0;entryDy=0;" edge="1" parent="1" target="3a17f1ce550125da-8">
          <mxGeometry width="50" height="50" relative="1" as="geometry">
            <mxPoint x="310" y="690" as="sourcePoint" />
            <mxPoint x="520" y="710" as="targetPoint" />
            <Array as="points">
              <mxPoint x="310" y="518" />
            </Array>
          </mxGeometry>
        </mxCell>
        <mxCell id="vI0If23ku_HwxLo2vswI-79" value="" style="endArrow=classic;html=1;rounded=0;entryX=0;entryY=0.75;entryDx=0;entryDy=0;" edge="1" parent="1" target="vI0If23ku_HwxLo2vswI-20">
          <mxGeometry width="50" height="50" relative="1" as="geometry">
            <mxPoint x="350" y="713" as="sourcePoint" />
            <mxPoint x="460" y="950" as="targetPoint" />
          </mxGeometry>
        </mxCell>
        <mxCell id="vI0If23ku_HwxLo2vswI-80" value="" style="endArrow=classic;html=1;rounded=0;entryX=0;entryY=0.75;entryDx=0;entryDy=0;" edge="1" parent="1" target="3a17f1ce550125da-8">
          <mxGeometry width="50" height="50" relative="1" as="geometry">
            <mxPoint x="350" y="553" as="sourcePoint" />
            <mxPoint x="460" y="950" as="targetPoint" />
          </mxGeometry>
        </mxCell>
        <mxCell id="vI0If23ku_HwxLo2vswI-81" value="" style="endArrow=classic;html=1;rounded=0;entryX=0;entryY=0.75;entryDx=0;entryDy=0;" edge="1" parent="1" target="vI0If23ku_HwxLo2vswI-25">
          <mxGeometry width="50" height="50" relative="1" as="geometry">
            <mxPoint x="350" y="1113" as="sourcePoint" />
            <mxPoint x="460" y="950" as="targetPoint" />
          </mxGeometry>
        </mxCell>
        <mxCell id="vI0If23ku_HwxLo2vswI-82" value="" style="endArrow=classic;html=1;rounded=0;entryX=-0.003;entryY=0.652;entryDx=0;entryDy=0;entryPerimeter=0;" edge="1" parent="1" target="vI0If23ku_HwxLo2vswI-24">
          <mxGeometry width="50" height="50" relative="1" as="geometry">
            <mxPoint x="350" y="1026" as="sourcePoint" />
            <mxPoint x="460" y="950" as="targetPoint" />
          </mxGeometry>
        </mxCell>
        <mxCell id="vI0If23ku_HwxLo2vswI-83" value="" style="endArrow=classic;html=1;rounded=0;entryX=0;entryY=0.75;entryDx=0;entryDy=0;" edge="1" parent="1" target="vI0If23ku_HwxLo2vswI-23">
          <mxGeometry width="50" height="50" relative="1" as="geometry">
            <mxPoint x="350" y="953" as="sourcePoint" />
            <mxPoint x="460" y="950" as="targetPoint" />
          </mxGeometry>
        </mxCell>
        <mxCell id="vI0If23ku_HwxLo2vswI-84" value="" style="endArrow=classic;html=1;rounded=0;entryX=0;entryY=0.25;entryDx=0;entryDy=0;" edge="1" parent="1" target="vI0If23ku_HwxLo2vswI-25">
          <mxGeometry width="50" height="50" relative="1" as="geometry">
            <mxPoint x="310" y="1078" as="sourcePoint" />
            <mxPoint x="460" y="950" as="targetPoint" />
            <Array as="points">
              <mxPoint x="310" y="940" />
              <mxPoint x="310" y="1078" />
            </Array>
          </mxGeometry>
        </mxCell>
        <mxCell id="vI0If23ku_HwxLo2vswI-85" value="A[0:31]" style="endArrow=none;html=1;rounded=0;" edge="1" parent="1">
          <mxGeometry width="50" height="50" relative="1" as="geometry">
            <mxPoint x="140" y="790" as="sourcePoint" />
            <mxPoint x="310" y="790" as="targetPoint" />
          </mxGeometry>
        </mxCell>
        <mxCell id="vI0If23ku_HwxLo2vswI-86" value="" style="endArrow=none;html=1;rounded=0;" edge="1" parent="1">
          <mxGeometry width="50" height="50" relative="1" as="geometry">
            <mxPoint x="150" y="850" as="sourcePoint" />
            <mxPoint x="350" y="850" as="targetPoint" />
          </mxGeometry>
        </mxCell>
        <mxCell id="vI0If23ku_HwxLo2vswI-87" value="B[0:31]" style="edgeLabel;html=1;align=center;verticalAlign=middle;resizable=0;points=[];" vertex="1" connectable="0" parent="vI0If23ku_HwxLo2vswI-86">
          <mxGeometry x="-0.095" y="1" relative="1" as="geometry">
            <mxPoint as="offset" />
          </mxGeometry>
        </mxCell>
        <mxCell id="vI0If23ku_HwxLo2vswI-127" value="" style="endArrow=classic;html=1;rounded=0;entryX=0.5;entryY=0;entryDx=0;entryDy=0;" edge="1" parent="1" target="3a17f1ce550125da-2">
          <mxGeometry width="50" height="50" relative="1" as="geometry">
            <mxPoint x="872" y="340" as="sourcePoint" />
            <mxPoint x="870" y="440" as="targetPoint" />
          </mxGeometry>
        </mxCell>
        <mxCell id="vI0If23ku_HwxLo2vswI-128" value="Operation&lt;br&gt;" style="edgeLabel;html=1;align=center;verticalAlign=middle;resizable=0;points=[];" vertex="1" connectable="0" parent="vI0If23ku_HwxLo2vswI-127">
          <mxGeometry x="-0.4903" y="-1" relative="1" as="geometry">
            <mxPoint as="offset" />
          </mxGeometry>
        </mxCell>
      </root>
    </mxGraphModel>
  </diagram>
</mxfile>
